<?xml version="1.0" encoding="utf-8"?>
<!-- Generator: Adobe Illustrator 22.0.1, SVG Export Plug-In . SVG Version: 6.00 Build 0)  -->
<svg version="1.1" id="Layer_1" xmlns="http://www.w3.org/2000/svg" xmlns:xlink="http://www.w3.org/1999/xlink" x="0px" y="0px"
	 viewBox="0 0 490 490" style="enable-background:new 0 0 490 490;" xml:space="preserve">
<style type="text/css">
	.st0{fill:#2991E2;}
</style>
<g id="XMLID_857_">
	<g>
		<g>
			<path class="st0" d="M490,260.4h-7.7h-467H0v15.3h15.3v20.4c0,75.6,56.9,138.1,130.2,147v24.1h15.3v-23c0.9,0,1.7,0,2.6,0h165.9
				v23h15.3v-23.3c76.9-5.3,137.8-69.5,137.8-147.7v-20.4h7.7L490,260.4L490,260.4z M334.3,428.8H163.4
				c-73.2,0-132.7-59.5-132.7-132.7v-20.4H467v20.4h0C467,369.3,407.5,428.8,334.3,428.8z"/>
			<rect x="68.9" y="291" class="st0" width="359.8" height="15.3"/>
			<path class="st0" d="M107.1,71.9v12.9c-21.7,3.7-38.3,22.6-38.3,45.4v7.8h92.1v-7.8c0-22.7-16.6-41.7-38.3-45.4V71.9
				c0-27-22-49-49-49H0v15.5h73.6C92.1,38.4,107.1,53.5,107.1,71.9z M114.8,99.7c14.1,0,26.1,9.7,29.5,22.8h-59
				C88.8,109.4,100.7,99.7,114.8,99.7z"/>
			<path class="st0" d="M237.2,176.3h199.3V69.1h15.2V53.5h0h-18.1c-4.5-9.1-13.9-15.3-24.7-15.3h-144c-10.8,0-20.2,6.2-24.7,15.3
				H222v15.5h15.2L237.2,176.3L237.2,176.3z M252.8,65.9c0-6.7,5.4-12.1,12.1-12.1h144c6.7,0,12.1,5.4,12.1,12.1v94.8H252.8V65.9z"
				/>
			<rect x="237.2" y="183.8" class="st0" width="15.5" height="23"/>
			<rect x="267.9" y="183.8" class="st0" width="15.5" height="23"/>
			<rect x="298.5" y="183.8" class="st0" width="15.5" height="23"/>
			<rect x="329.1" y="183.8" class="st0" width="15.5" height="23"/>
			<rect x="359.7" y="183.8" class="st0" width="15.5" height="23"/>
			<rect x="390.4" y="183.8" class="st0" width="15.5" height="23"/>
			<rect x="421" y="183.8" class="st0" width="15.5" height="23"/>
			<rect x="268" y="130.1" class="st0" width="137.8" height="15.5"/>
			<rect x="76.5" y="153.2" class="st0" width="15.5" height="38.3"/>
			<rect x="107.1" y="153.2" class="st0" width="15.5" height="61.2"/>
			<rect x="137.7" y="153.2" class="st0" width="15.5" height="23"/>
		</g>
	</g>
</g>
</svg>
